<svg xmlns="http://www.w3.org/2000/svg"  viewBox="0 0 64 64" width="128px" height="128px"><path d="M 16 8 C 11.582 8 8 11.582 8 16 L 8 48 C 8 52.418 11.582 56 16 56 L 48 56 C 52.418 56 56 52.418 56 48 L 56 16 C 56 11.582 52.418 8 48 8 L 16 8 z M 36 23 L 46 23 L 46 25.570312 L 36 25.570312 L 36 23 z M 17.146484 23.001953 L 25.759766 23.001953 C 26.694766 23.001953 31.751953 22.941797 31.751953 27.591797 C 31.751953 30.063797 30.065406 30.897672 29.316406 31.263672 C 30.439406 31.631672 32.498047 32.673469 32.498047 35.855469 C 32.499047 40.787469 26.882766 40.999 26.134766 41 L 17.146484 41 L 17.146484 23.001953 z M 20.986328 26.121094 L 20.986328 30.345703 L 25.107422 30.345703 C 25.668422 30.345703 27.539062 30.029578 27.539062 28.142578 C 27.539062 26.255578 25.105422 26.121094 24.732422 26.121094 L 20.986328 26.121094 z M 41.298828 27 C 46.257828 27 47.603734 30.869969 47.802734 31.792969 C 47.999734 32.715969 48 33.532672 48 34.638672 L 37.945312 34.638672 C 37.945312 35.744672 38.533141 38.240234 41.494141 38.240234 C 42.283141 38.240234 42.875797 38.053547 43.466797 37.685547 C 44.057797 37.315547 44.254172 36.947125 44.451172 36.578125 L 47.802734 36.578125 C 47.211734 38.052125 46.423281 39.159484 45.238281 39.896484 C 44.056281 40.633484 42.675609 41 41.099609 41 C 40.113609 41 39.125625 40.815313 38.140625 40.445312 C 37.351625 40.075313 36.564609 39.526656 35.974609 38.972656 C 35.382609 38.422656 34.98775 37.684672 34.59375 36.763672 C 34.19875 36.027672 34 34.92 34 34 C 34 33.081 34.368828 27 41.298828 27 z M 41.115234 29.462891 C 38.220234 29.462891 37.746094 32.2535 37.746094 32.4375 L 44.087891 32.4375 C 43.889891 31.5095 43.057234 29.462891 41.115234 29.462891 z M 20.945312 32.919922 L 20.945312 37.876953 L 25.253906 37.876953 C 25.627906 37.876953 28.248047 37.754234 28.248047 35.490234 C 28.249047 33.223234 26.189906 32.919922 25.253906 32.919922 L 20.945312 32.919922 z"/></svg>