<svg id="Layer_1" data-name="Layer 1" xmlns="http://www.w3.org/2000/svg" xmlns:xlink="http://www.w3.org/1999/xlink" viewBox="0 0 259.93 154.7"><defs><style>.cls-1{fill:url(#Nueva_muestra_de_degradado_2);}.cls-2{fill:url(#Nueva_muestra_de_degradado_2-2);}.cls-3{fill:url(#Nueva_muestra_de_degradado_2-3);}.cls-4{fill:url(#Nueva_muestra_de_degradado_2-4);}.cls-5{fill:url(#Nueva_muestra_de_degradado_2-5);}</style><linearGradient id="Nueva_muestra_de_degradado_2" x1="761.96" y1="581.19" x2="649.12" y2="728.61" gradientUnits="userSpaceOnUse"><stop offset="0" stop-color="#003092"/><stop offset="0.6" stop-color="#8f1aeb"/><stop offset="1" stop-color="#ffa3c0"/></linearGradient><linearGradient id="Nueva_muestra_de_degradado_2-2" x1="659.99" y1="522.73" x2="749.17" y2="653.77" xlink:href="#Nueva_muestra_de_degradado_2"/><linearGradient id="Nueva_muestra_de_degradado_2-3" x1="1113.63" y1="581.19" x2="1000.8" y2="728.61" gradientTransform="matrix(-1, 0, 0, 1, 1601.5, 0)" xlink:href="#Nueva_muestra_de_degradado_2"/><linearGradient id="Nueva_muestra_de_degradado_2-4" x1="1011.66" y1="522.73" x2="1100.84" y2="653.77" gradientTransform="matrix(-1, 0, 0, 1, 1601.5, 0)" xlink:href="#Nueva_muestra_de_degradado_2"/><linearGradient id="Nueva_muestra_de_degradado_2-5" x1="650.09" y1="583.76" x2="606.01" y2="642.78" xlink:href="#Nueva_muestra_de_degradado_2"/></defs><title>logo</title><path class="cls-1" d="M675.35,702H646.14l57.78-80.08h51l-45.06,62.45A42.51,42.51,0,0,1,675.35,702Z" transform="translate(-494.95 -547.3)"/><path class="cls-2" d="M678.71,547.3H649.32L729.4,656.74l25.48-34.82L713,564.71A42.52,42.52,0,0,0,678.71,547.3Z" transform="translate(-494.95 -547.3)"/><path class="cls-3" d="M574.48,702h29.21L545.9,621.92H495L540,684.37A42.52,42.52,0,0,0,574.48,702Z" transform="translate(-494.95 -547.3)"/><path class="cls-4" d="M571.11,547.3H600.5L520.42,656.74,495,621.92l41.86-57.21A42.5,42.5,0,0,1,571.11,547.3Z" transform="translate(-494.95 -547.3)"/><path class="cls-5" d="M601.79,596h24.76c16.78,0,28.34,9.54,28.34,25.11s-11.56,25.11-28.34,25.11H601.79Zm24,37c7.1,0,12-4.23,12-11.91s-4.88-11.91-12-11.91h-7.11V633Z" transform="translate(-494.95 -547.3)"/></svg>